<svg xmlns="http://www.w3.org/2000/svg" version="1.1" xmlns:xlink="http://www.w3.org/1999/xlink" xmlns:svgjs="http://svgjs.dev/svgjs" width="1000" height="227" viewBox="0 0 1000 227"><g transform="matrix(1,0,0,1,-0.6060315617124843,-0.616199181613851)"><svg viewBox="0 0 396 90" data-background-color="#353a65" preserveAspectRatio="xMidYMid meet" height="227" width="1000" xmlns="http://www.w3.org/2000/svg" xmlns:xlink="http://www.w3.org/1999/xlink"><g id="tight-bounds" transform="matrix(1,0,0,1,0.2399884984381515,0.24430804557377428)"><svg viewBox="0 0 395.52 89.51138390885247" height="89.51138390885247" width="395.52"><g><svg viewBox="0 0 660.6479702967054 149.51333459201192" height="89.51138390885247" width="395.52"><g transform="matrix(1,0,0,1,265.1279702967053,30.92203290558657)"><svg viewBox="0 0 395.52 87.66926878083878" height="87.66926878083878" width="395.52"><g id="textblocktransform"><svg viewBox="0 0 395.52 87.66926878083878" height="87.66926878083878" width="395.52" id="textblock"><g><svg viewBox="0 0 395.52 87.66926878083878" height="87.66926878083878" width="395.52"><g transform="matrix(1,0,0,1,0,0)"><svg width="395.52" viewBox="2.5 -35.2 161.050547708067 35.7" height="87.66926878083878" data-palette-color="#3e9fff"><path d="M12.5-12.75L12.5-0.7Q12.5 0.05 7.8 0.05L7.8 0.05 5-0.1Q2.5-0.3 2.5-0.8L2.5-0.8 2.5-34.35Q2.5-35.2 7.5-35.2 12.5-35.2 12.5-34.35L12.5-34.35 12.5-21.55 18.6-34.35Q18.95-35.05 22.6-35.05L22.6-35.05Q29.25-35.05 29.6-33.9L29.6-33.9Q29.6-33.8 29.55-33.7L29.55-33.7 20.85-18 30.95-4.05Q30.95-3.95 30-3.2L30-3.2Q27.7-1.2 24.6-0.05L24.6-0.05Q23.65 0.3 22.7 0.3L22.7 0.3 21.5 0.2Q19.9-0.2 19-1.85L19-1.85 13.3-12.75 12.5-12.75ZM49.85-11.4L49.85-34Q49.85-35 55.27-35 60.7-35 60.7-34L60.7-34 60.7-11.05Q60.7-5.95 57.05-2.73 53.4 0.5 46.97 0.5 40.55 0.5 36.52-2.83 32.5-6.15 32.5-11.8L32.5-11.8 32.5-33.95Q32.5-34.95 37.92-34.95 43.35-34.95 43.35-33.95L43.35-33.95 43.35-11.4Q43.35-10.4 44.4-9.8L44.4-9.8Q45.5-9.2 46.7-9.2 47.9-9.2 48.87-9.75 49.85-10.3 49.85-11.4L49.85-11.4ZM64.75-8.6L68.2-8.6 68.2-26.4 64.65-26.4Q63.8-26.4 63.45-28.55L63.45-28.55Q63.3-29.6 63.3-30.7 63.3-31.8 63.45-32.85L63.45-32.85Q63.8-35 64.65-35L64.65-35 81.45-35Q82.3-35 82.59-32.85L82.59-32.85Q82.8-31.8 82.8-30.7 82.8-29.6 82.59-28.55L82.59-28.55Q82.3-26.4 81.45-26.4L81.45-26.4 78.09-26.4 78.09-8.6 81.59-8.6Q82.45-8.6 82.8-6.45L82.8-6.45Q83-5.4 83-4.3 83-3.2 82.8-2.15L82.8-2.15Q82.45 0 81.59 0L81.59 0 64.75 0Q63.9 0 63.6-2.15L63.6-2.15Q63.4-3.2 63.4-4.3 63.4-5.4 63.6-6.45L63.6-6.45Q63.9-8.6 64.75-8.6L64.75-8.6ZM97.59-25.9L87.64-25.9Q86.79-25.9 86.44-28.2L86.44-28.2Q86.29-29.15 86.29-30.3 86.29-31.45 86.54-32.7L86.54-32.7Q86.99-35 88.04-35L88.04-35 106.54-35Q109.59-35 110.49-29.45L110.49-29.45Q110.69-28.25 110.69-27.7L110.69-27.7 98.99-9.95 108.14-9.95Q108.19-9.95 108.24-9.95L108.24-9.95Q109.34-9.95 109.79-7.55L109.79-7.55Q109.99-6.4 109.99-5.15 109.99-3.9 109.69-2.5L109.69-2.5Q109.14 0 107.99 0L107.99 0 88.54 0Q88.09 0 86.92-3.03 85.74-6.05 85.74-6.8 85.74-7.55 85.89-7.75L85.89-7.75 97.59-25.9ZM113.99-2.95L113.99-2.95 113.99-34.05Q113.99-35.1 119.07-35.1 124.14-35.1 124.14-34.05L124.14-34.05 124.14-9.55 131.84-9.55Q132.74-9.55 133.09-7.2L133.09-7.2Q133.24-6.05 133.24-4.85 133.24-3.65 133.09-2.4L133.09-2.4Q132.69 0 131.79 0L131.79 0 116.39 0Q115.29 0 114.64-0.9 113.99-1.8 113.99-2.95ZM147.69-23.15L151.89-33.35Q152.54-35.1 158.29-35.1L158.29-35.1Q159.74-35.1 161.71-34.9 163.69-34.7 163.54-34.4L163.54-34.4 153.14-13.5 153.14-1.3Q153.14-0.45 150.39-0.1L150.39-0.1Q148.99 0.1 147.64 0.1 146.29 0.1 144.94-0.05L144.94-0.05Q142.19-0.4 142.19-1.3L142.19-1.3 142.19-13.2 131.44-34.3Q131.24-34.6 133.49-34.88 135.74-35.15 137.29-35.15L137.29-35.15Q143.44-35.15 144.04-33.35L144.04-33.35 147.69-23.15Z" opacity="1" transform="matrix(1,0,0,1,0,0)" fill="#3e9fff" class="undefined-text-0" data-fill-palette-color="primary" id="text-0"></path></svg></g></svg></g></svg></g></svg></g><g><svg viewBox="0 0 244.43136 149.51333459201192" height="149.51333459201192" width="244.43136"><g><svg xmlns="http://www.w3.org/2000/svg" xmlns:xlink="http://www.w3.org/1999/xlink" version="1.1" x="0" y="0" viewBox="4.280035867850395 20 91.71979628105136 56.10300000000001" enable-background="new 0 0 100 100" xml:space="preserve" height="149.51333459201192" width="244.43136" class="icon-icon-0" data-fill-palette-color="accent" id="icon-0"><g fill="#da572d" data-fill-palette-color="accent"><path d="M68.633 55.761c-0.157 0-0.317 0.01-0.474 0.032-1.972 0.264-3.362 2.081-3.1 4.053 0.238 1.785 1.777 3.131 3.579 3.131 0.158 0 0.317-0.01 0.475-0.031 1.971-0.264 3.361-2.081 3.1-4.054C71.974 57.107 70.435 55.761 68.633 55.761z" fill="#da572d" data-fill-palette-color="accent"></path><path d="M73.58 34.083c-1.609-1.063-3.733-1.625-6.146-1.625-0.709 0-1.438 0.049-2.166 0.146-2.408 0.321-4.744 1.487-6.41 3.197-1.689 1.736-2.51 3.855-2.248 5.813 0.192 1.445 1.28 2.379 2.771 2.379 0.16 0 0.323-0.012 0.486-0.033 1.992-0.266 2.422-1.638 2.836-2.964 0.473-1.512 0.919-2.939 3.493-3.283 0.264-0.035 0.521-0.053 0.765-0.053 1.853 0 3.003 0.978 3.24 2.754 0.232 1.738-1.142 3.124-2.597 4.591-1.633 1.647-3.484 3.513-3.131 6.16 0.091 0.682 0.392 1.318 0.846 1.791 0.521 0.543 1.203 0.83 1.972 0.83 0.141 0 0.287-0.009 0.432-0.029 2.084-0.278 2.368-1.487 2.642-2.658 0.104-0.442 0.212-0.9 0.42-1.312 0.289-0.576 1.012-1.252 1.851-2.034 2.002-1.871 4.743-4.433 4.236-8.228C76.555 37.148 75.446 35.317 73.58 34.083z" fill="#da572d" data-fill-palette-color="accent"></path><path d="M95.961 65.606l-5.583-41.84C90.091 21.62 88.243 20 86.078 20c-0.191 0-0.386 0.013-0.577 0.039l-41.839 5.583c-2.372 0.317-4.044 2.504-3.728 4.877l0.319 2.394-27.441-3.965c-0.16-0.023-0.323-0.035-0.484-0.035-1.661 0-3.092 1.241-3.331 2.886L4.315 64.188c-0.128 0.891 0.098 1.777 0.636 2.498 0.539 0.72 1.325 1.188 2.216 1.316l32.408 4.682c0.161 0.022 0.324 0.033 0.484 0.033 1.661 0 3.092-1.239 3.33-2.885l0.932-6.453 1.195 8.957c0.287 2.148 2.135 3.767 4.299 3.767 0.192 0 0.387-0.012 0.578-0.037l41.84-5.585c1.147-0.152 2.169-0.744 2.873-1.665C95.812 67.896 96.114 66.755 95.961 65.606zM40.623 69.434c-0.044 0.307-0.334 0.529-0.647 0.483L7.567 65.235c-0.205-0.029-0.323-0.152-0.376-0.223-0.053-0.071-0.137-0.221-0.108-0.425l4.682-32.409c0.041-0.279 0.283-0.49 0.563-0.49 0.028 0 0.057 0.002 0.084 0.006l28.226 4.077 2.328 17.444L40.623 69.434zM92.244 66.627c-0.069 0.091-0.225 0.248-0.488 0.283l-41.839 5.584c-0.405 0.056-0.774-0.235-0.828-0.633l-5.583-41.839c-0.054-0.403 0.23-0.774 0.633-0.828l41.838-5.584c0.035-0.004 0.067-0.006 0.102-0.006 0.366 0 0.68 0.275 0.728 0.64l5.585 41.84C92.425 66.347 92.312 66.537 92.244 66.627z" fill="#da572d" data-fill-palette-color="accent"></path><path d="M33.159 41.087c-1.284-1.176-3.186-1.997-5.354-2.31-0.396-0.058-0.803-0.087-1.208-0.087-1.703 0-3.377 0.5-4.717 1.408-1.377 0.934-2.246 2.203-2.443 3.572-0.094 0.651 0.061 1.231 0.45 1.679 0.35 0.402 0.877 0.673 1.485 0.761 0.153 0.022 0.3 0.034 0.44 0.034 1.227 0 1.775-0.837 2.305-1.646 0.591-0.906 1.151-1.762 2.64-1.762 0.206 0 0.429 0.017 0.66 0.05 1.764 0.254 2.645 1.298 2.418 2.864-0.193 1.345-1.513 2.09-2.908 2.877-1.567 0.884-3.344 1.886-3.64 3.937-0.083 0.572 0.033 1.168 0.32 1.633 0.235 0.382 0.695 0.863 1.557 0.988 0.18 0.025 0.351 0.039 0.509 0.039h0.001c1.212 0 1.625-0.745 2.023-1.465 0.171-0.309 0.347-0.628 0.59-0.891 0.337-0.369 1.021-0.721 1.812-1.128 1.89-0.972 4.479-2.306 4.903-5.244C35.303 44.305 34.667 42.469 33.159 41.087z" fill="#da572d" data-fill-palette-color="accent"></path><path d="M25.057 56.696c-0.132-0.019-0.265-0.03-0.397-0.03-1.383 0-2.576 1.033-2.774 2.4-0.219 1.527 0.844 2.949 2.371 3.17 0.132 0.02 0.266 0.028 0.397 0.028 1.384 0 2.577-1.031 2.774-2.398C27.647 58.339 26.584 56.918 25.057 56.696z" fill="#da572d" data-fill-palette-color="accent"></path></g></svg></g></svg></g></svg></g><defs></defs></svg><rect width="395.52" height="89.51138390885247" fill="none" stroke="none" visibility="hidden"></rect></g></svg></g></svg>